<svg width="32" height="32" viewBox="0 0 32 32" fill="none" xmlns="http://www.w3.org/2000/svg">
<path d="M19.7151 23.4458C21.5414 25.926 21.154 25.8677 22.3699 26.5211C24.8802 27.8702 20.1414 28.8008 18.0087 27.7953C15.8753 26.7903 14.9099 24.3538 15.8527 22.3537C16.7951 20.3536 18.3165 21.5469 19.7151 23.4458ZM31.3325 23.8493L31.1701 23.646C31.1701 23.646 31.1362 23.6036 31.0736 23.5311C31.0114 23.4562 30.9145 23.3616 30.8076 23.2251C30.7799 23.1921 30.7521 23.1563 30.7211 23.122C30.6914 23.0862 30.6579 23.0528 30.6287 23.0105C30.569 22.9271 30.5012 22.8448 30.4316 22.7563C30.3652 22.6574 30.2966 22.5599 30.2259 22.464C30.1599 22.3576 30.0889 22.2498 30.0182 22.1387C29.8864 21.9061 29.7442 21.6661 29.6289 21.3983C29.6007 21.3309 29.5636 21.2693 29.54 21.1986C29.5139 21.1293 29.4861 21.0605 29.4567 20.9925C29.4412 20.9591 29.4303 20.9228 29.4191 20.887C29.4068 20.8516 29.3946 20.816 29.3824 20.7802C29.3579 20.7096 29.3301 20.6394 29.3122 20.5651C29.291 20.4921 29.2712 20.4186 29.2472 20.3462C29.2289 20.2723 29.2138 20.1965 29.1949 20.1221C29.186 20.0845 29.1742 20.0482 29.1672 20.0101L29.1483 19.8952L29.1262 19.7813C29.1187 19.7431 29.1087 19.706 29.1069 19.6664C29.0994 19.5888 29.0871 19.512 29.0763 19.4344C29.0739 19.4165 29.0688 19.3939 29.0688 19.3788L29.0674 19.335C29.066 19.3058 29.0636 19.2766 29.0607 19.2475C29.0579 19.2183 29.0542 19.1896 29.0504 19.1604L29.0486 19.1496L29.0481 19.1443L29.0477 19.1335L29.0467 19.0888L29.0439 18.9999L29.0352 18.7146L29.0354 18.7118L29.0359 18.6971L29.0373 18.6675L29.0392 18.6082L29.0424 18.4896C29.0443 18.45 29.041 18.4101 29.0452 18.371L29.0561 18.2533L29.0655 18.136C29.0674 18.0965 29.0688 18.0574 29.0764 18.0188C29.0872 17.9416 29.0994 17.8649 29.1069 17.7868C29.1088 17.7477 29.1187 17.71 29.1262 17.6723L29.1484 17.5579L29.1672 17.4435C29.1743 17.4054 29.1861 17.3691 29.195 17.3315C29.2139 17.2571 29.2289 17.1813 29.2472 17.1069C29.2712 17.0349 29.2911 16.9615 29.3122 16.888C29.3301 16.8136 29.3579 16.744 29.3824 16.6729C29.3947 16.6372 29.4069 16.6018 29.4191 16.5665C29.4304 16.5307 29.4412 16.4945 29.4567 16.4611C29.4861 16.393 29.5139 16.3243 29.5401 16.2549C29.5636 16.1843 29.6008 16.1226 29.629 16.0553C29.7443 15.7875 29.8865 15.5469 30.0183 15.3149C30.0889 15.2033 30.16 15.096 30.2259 14.9891C30.2968 14.8935 30.3654 14.7962 30.4316 14.6973C30.5012 14.6088 30.5691 14.5264 30.6288 14.4431C30.6608 14.3988 30.6839 14.372 30.7093 14.3391C30.7342 14.308 30.7568 14.275 30.7794 14.2449L30.8439 14.1564C30.8486 14.1493 30.8538 14.1423 30.8586 14.1352C30.867 14.1272 30.8755 14.1192 30.8835 14.1113C30.9 14.0957 30.9159 14.0806 30.931 14.066C30.9927 14.0086 31.0435 13.9578 31.0854 13.9163C31.128 13.874 31.1699 13.831 31.2111 13.7873C31.4789 13.496 31.6249 13.0878 31.5698 12.6647C31.4704 11.9054 30.7747 11.3706 30.0155 11.47C30.0155 11.47 29.9529 11.4785 29.8376 11.4978C29.7669 11.5096 29.6964 11.5226 29.6262 11.5368C29.6055 11.5406 29.5838 11.5448 29.5617 11.5491C29.5509 11.5515 29.5396 11.5536 29.5278 11.5556C29.5137 11.5603 29.4991 11.5651 29.4845 11.5703C29.4252 11.5905 29.3626 11.6121 29.2962 11.6353C29.2298 11.6592 29.1587 11.6833 29.0853 11.712C29.0133 11.7401 28.93 11.7708 28.8617 11.8019C28.7167 11.864 28.5628 11.9384 28.3952 12.0175C28.2338 12.1041 28.0643 12.203 27.885 12.3098C27.7127 12.4247 27.5315 12.5495 27.3479 12.6878C26.9906 12.975 26.6126 13.3115 26.2718 13.7244C26.1973 13.8081 26.1267 13.8969 26.0574 13.988C24.8732 10.1356 22.5962 7.87559 19.9595 6.13009C15.241 3.00684 12.0979 3.35515 9.85587 5.10434C7.61337 6.85359 7.84125 11.1574 7.84125 11.1574L25.5516 14.7343L25.5441 14.7468C25.4702 14.8716 25.3926 14.9968 25.3299 15.1309C25.2645 15.2637 25.1972 15.3973 25.1336 15.5343C25.0748 15.6727 25.0192 15.8144 24.9632 15.957C24.9364 16.0291 24.9072 16.1006 24.8831 16.1736C24.8601 16.2471 24.837 16.3208 24.8139 16.3948C24.7922 16.4697 24.7701 16.5441 24.748 16.6189C24.7264 16.6938 24.7028 16.7686 24.6877 16.8453C24.6524 16.9983 24.6218 17.1527 24.5898 17.3076C24.5559 17.462 24.5432 17.6197 24.5216 17.777L24.4933 18.0133C24.4834 18.0923 24.4829 18.1715 24.4782 18.251L24.4684 18.4887L24.4642 18.6078L24.4618 18.6671L24.4608 18.6973L24.4604 18.7119V18.7194C24.4608 18.7594 24.4585 18.6408 24.4618 18.8107L24.4769 19.1675L24.4806 19.2565L24.483 19.3007L24.4834 19.3125L24.4853 19.329L24.4886 19.3623L24.5173 19.6293L24.5493 19.8953L24.5672 20.0275C24.5738 20.0713 24.5823 20.1061 24.5898 20.1461C24.6218 20.301 24.6524 20.4554 24.6877 20.6079C24.7028 20.6846 24.7264 20.7595 24.748 20.8348C24.7702 20.9096 24.7922 20.9841 24.8139 21.0584C24.8371 21.1328 24.8601 21.2062 24.8831 21.2801C24.9071 21.3531 24.9363 21.4246 24.9632 21.4962C25.0192 21.6393 25.0747 21.7805 25.1336 21.9193C25.1972 22.0558 25.2644 22.19 25.3299 22.3228C25.3925 22.457 25.4702 22.5816 25.5441 22.7069C25.6194 22.8306 25.6891 22.9559 25.7719 23.0712C25.9348 23.3033 26.0934 23.5288 26.2719 23.7293C26.6127 24.1422 26.9907 24.4787 27.3479 24.7658C27.5315 24.9043 27.7127 25.029 27.8851 25.1438C28.0644 25.2507 28.2339 25.3495 28.3953 25.4362C28.5629 25.5148 28.7168 25.5896 28.8618 25.6513C29.0063 25.7139 29.1452 25.7596 29.2681 25.802C29.3297 25.8226 29.3876 25.842 29.4427 25.8603C29.4968 25.8796 29.5514 25.8895 29.5999 25.9027C29.6978 25.9281 29.7816 25.947 29.8494 25.9615C29.9844 25.9911 30.0565 26.0039 30.0565 26.0039C30.4194 26.0651 30.811 25.9785 31.1212 25.7309C31.6992 25.2695 31.7938 24.4273 31.3325 23.8493Z" fill="#00B1FF"/>
<path d="M27.5015 17.8073C27.5015 20.6821 21.4291 27.4026 13.938 27.4026C8.59013 27.4026 3.96525 25.2128 1.75663 22.0317C1.60081 21.8075 1.77356 21.503 2.04569 21.5265C2.34081 21.5525 2.7 21.5807 3.04456 21.5995C3.48188 21.624 3.67913 21.062 3.32325 20.8068C2.6435 20.3192 1.75763 19.7016 1.17675 19.364C0.70275 19.0878 0.397687 18.5902 0.378875 18.0418C0.376362 17.9637 0.37507 17.8855 0.375 17.8073C0.375 12.508 6.44731 8.21216 13.9379 8.21216C21.4291 8.2121 27.5015 14.9327 27.5015 17.8073Z" fill="#59CAFC"/>
<path d="M5.33543 14.4597C5.90737 14.4597 6.37149 14.9229 6.37149 15.4967V16.7701C6.37149 17.3429 5.90737 17.8071 5.33543 17.8071C4.76256 17.8071 4.29843 17.3429 4.29843 16.7701V15.4967C4.29843 14.9229 4.76256 14.4597 5.33543 14.4597Z" fill="#2B3B47"/>
<path d="M14.0897 23.3881C13.7902 23.8084 13.4226 23.4775 13.5728 22.9832C13.9207 21.8394 14.2054 20.0059 14.2054 17.9399C14.2054 15.8734 13.9207 14.0405 13.5728 12.8966C13.4226 12.4024 13.7902 12.0715 14.0897 12.4918C14.8616 13.5749 15.418 15.6094 15.418 17.94C15.418 20.2709 14.8616 22.305 14.0897 23.3881ZM17.7202 21.8647C18.2761 21.0842 18.6772 19.6189 18.6772 17.9398C18.6772 16.2607 18.2761 14.7953 17.7202 14.0149C17.5041 13.7122 17.2396 13.9509 17.3479 14.3067C17.5987 15.131 17.8035 16.4513 17.8035 17.9398C17.8035 19.4283 17.5987 20.7491 17.3479 21.5733C17.2396 21.9292 17.5041 22.1679 17.7202 21.8647Z" fill="#00B1FF"/>
</svg>
