<svg width="82" height="82" viewBox="0 0 82 82" fill="none" xmlns="http://www.w3.org/2000/svg">
<path d="M50.5198 60.0799C55.1999 66.4355 54.2071 66.2859 57.3228 67.9604C63.7556 71.4173 51.6124 73.8022 46.1473 71.2256C40.6805 68.6503 38.2065 62.4068 40.6227 57.2815C43.0375 52.1561 46.936 55.214 50.5198 60.0799ZM80.2895 61.1138L79.8734 60.5928C79.8734 60.5928 79.7866 60.4843 79.626 60.2985C79.4668 60.1066 79.2184 59.8643 78.9445 59.5144C78.8734 59.4298 78.8022 59.3382 78.7227 59.2503C78.6468 59.1585 78.561 59.073 78.4862 58.9644C78.3331 58.7509 78.1593 58.5398 77.9809 58.3132C77.8107 58.0596 77.635 57.8098 77.4538 57.564C77.2848 57.2914 77.1027 57.0151 76.9218 56.7305C76.584 56.1346 76.2196 55.5194 75.9241 54.8331C75.8519 54.6605 75.7566 54.5026 75.6962 54.3216C75.6293 54.1438 75.5581 53.9677 75.4828 53.7933C75.443 53.7077 75.4152 53.6148 75.3863 53.5231C75.3549 53.4323 75.3236 53.3411 75.2923 53.2494C75.2295 53.0684 75.1583 52.8885 75.1125 52.6981C75.0582 52.511 75.0074 52.3229 74.9459 52.1372C74.899 51.9478 74.8604 51.7537 74.812 51.5629C74.7891 51.4665 74.759 51.3736 74.7409 51.2759L74.6925 50.9815L74.6358 50.6896C74.6166 50.5919 74.5912 50.4968 74.5864 50.3952C74.5671 50.1963 74.5358 49.9996 74.508 49.8007C74.502 49.7547 74.4888 49.6969 74.4888 49.6583L74.4851 49.5461C74.4816 49.4713 74.4755 49.3965 74.4682 49.3218C74.461 49.2471 74.4514 49.1734 74.4417 49.0986L74.4369 49.0709L74.4358 49.0574L74.4347 49.0297L74.4323 48.9152L74.4251 48.6873L74.4028 47.9564L74.4033 47.949L74.4044 47.9115L74.4081 47.8356L74.4129 47.6836L74.4212 47.3796C74.426 47.2783 74.4176 47.1759 74.4284 47.0757L74.4563 46.7741L74.4803 46.4736C74.4851 46.3722 74.4888 46.2722 74.5082 46.1732C74.5359 45.9754 74.5673 45.7789 74.5865 45.5787C74.5913 45.4786 74.6166 45.382 74.636 45.2854L74.6927 44.9922L74.7411 44.6991C74.7592 44.6014 74.7894 44.5084 74.8122 44.4119C74.8605 44.2213 74.899 44.0272 74.9461 43.8365C75.0076 43.652 75.0583 43.4638 75.1126 43.2756C75.1584 43.085 75.2297 42.9065 75.2925 42.7244C75.3239 42.633 75.3552 42.5421 75.3865 42.4518C75.4153 42.36 75.4432 42.2673 75.4829 42.1816C75.5581 42.0071 75.6293 41.831 75.6964 41.6532C75.7568 41.4723 75.8521 41.3144 75.9243 41.1419C76.2198 40.4554 76.5841 39.839 76.9219 39.2445C77.1029 38.9586 77.285 38.6835 77.454 38.4098C77.6355 38.1646 77.8113 37.9153 77.981 37.6618C78.1594 37.4351 78.3332 37.224 78.4863 37.0105C78.5683 36.8971 78.6274 36.8284 78.6926 36.744C78.7565 36.6644 78.8143 36.5798 78.8723 36.5026L79.0376 36.2758C79.0496 36.2577 79.0629 36.2396 79.0751 36.2215C79.0967 36.201 79.1185 36.1805 79.139 36.1602C79.1813 36.1204 79.2219 36.0817 79.2607 36.0443C79.4188 35.8972 79.549 35.7669 79.6563 35.6607C79.7655 35.5523 79.8729 35.4421 79.9785 35.3301C80.6648 34.5836 81.0387 33.5376 80.8976 32.4534C80.643 30.5077 78.8603 29.1374 76.9147 29.3918C76.9147 29.3918 76.7542 29.4136 76.4587 29.4631C76.2776 29.4933 76.0971 29.5267 75.9171 29.5632C75.8641 29.5728 75.8085 29.5837 75.7518 29.5946C75.7241 29.6007 75.6951 29.6063 75.665 29.6114C75.6288 29.6234 75.5913 29.6356 75.554 29.6489C75.402 29.7008 75.2417 29.7562 75.0715 29.8155C74.9014 29.8768 74.7193 29.9385 74.5311 30.012C74.3466 30.0842 74.1331 30.1627 73.9582 30.2424C73.5867 30.4016 73.1922 30.5922 72.7628 30.795C72.3491 31.0168 71.9148 31.2702 71.4553 31.544C71.0139 31.8384 70.5495 32.1581 70.0789 32.5126C69.1633 33.2484 68.1948 34.1108 67.3215 35.1688C67.1306 35.3833 66.9498 35.6109 66.7722 35.8442C63.7375 25.9727 57.9027 20.1813 51.1462 15.7084C39.0551 7.70509 31.001 8.59764 25.2557 13.0799C19.5093 17.5624 20.0932 28.5909 20.0932 28.5909L65.476 37.7568L65.4568 37.7888C65.2675 38.1085 65.0684 38.4293 64.908 38.773C64.7403 39.1133 64.5678 39.4557 64.4049 39.8068C64.2542 40.1614 64.1117 40.5245 63.9682 40.8899C63.8995 41.0746 63.8247 41.258 63.763 41.4449C63.704 41.6332 63.6449 41.8222 63.5857 42.0118C63.5301 42.2037 63.4734 42.3943 63.4167 42.586C63.3613 42.7779 63.3009 42.9696 63.2624 43.1662C63.1719 43.5581 63.0934 43.9539 63.0114 44.3508C62.9246 44.7463 62.8919 45.1506 62.8365 45.5535L62.7641 46.1591C62.7388 46.3617 62.7375 46.5644 62.7255 46.7682L62.7002 47.3774L62.6895 47.6827L62.6834 47.8346L62.6808 47.9118L62.6797 47.9493V47.9685C62.6808 48.071 62.6749 47.767 62.6834 48.2025L62.722 49.1168L62.7316 49.3447L62.7377 49.4581L62.7388 49.4883L62.7436 49.5305L62.7521 49.6161L62.8256 50.3001L62.9076 50.9817L62.9536 51.3206C62.9704 51.4329 62.9922 51.5221 63.0114 51.6246C63.0934 52.0214 63.1717 52.417 63.2624 52.8078C63.3009 53.0045 63.3613 53.1962 63.4167 53.3893C63.4737 53.5809 63.53 53.7718 63.5857 53.9622C63.645 54.1528 63.7039 54.341 63.763 54.5305C63.8245 54.7174 63.8993 54.9007 63.9682 55.0841C64.1117 55.4507 64.254 55.8127 64.4049 56.1684C64.5678 56.5182 64.7401 56.862 64.908 57.2022C65.0683 57.546 65.2673 57.8655 65.4568 58.1865C65.6498 58.5036 65.8284 58.8246 66.0406 59.1201C66.458 59.7147 66.8644 60.2926 67.3217 60.8065C68.195 61.8643 69.1636 62.7268 70.0791 63.4625C70.5495 63.8173 71.0139 64.1369 71.4555 64.4312C71.915 64.705 72.3493 64.9582 72.763 65.1804C73.1924 65.3818 73.5868 65.5735 73.9584 65.7315C74.3287 65.8919 74.6845 66.009 74.9994 66.1176C75.1575 66.1706 75.3058 66.2201 75.4469 66.2672C75.5856 66.3167 75.7256 66.342 75.8497 66.3758C76.1006 66.4408 76.3152 66.4892 76.489 66.5265C76.8351 66.6024 77.0198 66.6351 77.0198 66.6351C77.9498 66.7919 78.9532 66.57 79.7482 65.9355C81.2292 64.7532 81.4716 62.5951 80.2895 61.1138Z" fill="#00B1FF"/>
<path d="M70.4726 45.6312C70.4726 52.9978 54.9121 70.2191 35.7161 70.2191C22.0122 70.2191 10.161 64.6077 4.50135 56.4561C4.10208 55.8817 4.54475 55.1014 5.24207 55.1617C5.99833 55.2281 6.91875 55.3005 7.80169 55.3487C8.92231 55.4115 9.42776 53.9712 8.51583 53.3175C6.77397 52.0678 4.50391 50.4853 3.01542 49.6203C1.8008 48.9124 1.01907 47.6374 0.970867 46.232C0.964427 46.0318 0.961117 45.8315 0.960938 45.6312C0.960938 32.0516 16.5212 21.0436 35.716 21.0436C54.9121 21.0434 70.4726 38.2649 70.4726 45.6312Z" fill="#59CAFC"/>
<path d="M13.6721 37.0531C15.1376 37.0531 16.327 38.24 16.327 39.7104V42.9734C16.327 44.4413 15.1376 45.6307 13.6721 45.6307C12.2041 45.6307 11.0147 44.4413 11.0147 42.9734V39.7104C11.0147 38.24 12.2041 37.0531 13.6721 37.0531Z" fill="#2B3B47"/>
<path d="M36.1048 59.9319C35.3375 61.0092 34.3955 60.1611 34.7803 58.8946C35.6718 55.9636 36.4014 51.2652 36.4014 45.9711C36.4014 40.6757 35.6718 35.9788 34.7803 33.0476C34.3955 31.7811 35.3375 30.9333 36.1048 32.0103C38.0829 34.7858 39.5086 39.9992 39.5086 45.9713C39.5086 51.9443 38.0829 57.1566 36.1048 59.9319ZM45.4081 56.0283C46.8326 54.0284 47.8603 50.2734 47.8603 45.9708C47.8603 41.6682 46.8326 37.913 45.4081 35.9132C44.8543 35.1375 44.1764 35.7492 44.4539 36.6611C45.0968 38.7732 45.6215 42.1565 45.6215 45.9708C45.6215 49.7851 45.0968 53.1695 44.4539 55.2816C44.1764 56.1937 44.8543 56.8052 45.4081 56.0283Z" fill="#00B1FF"/>
</svg>
